<svg xmlns="http://www.w3.org/2000/svg" xmlns:xlink="http://www.w3.org/1999/xlink" width="500" zoomAndPan="magnify" viewBox="0 0 375 374.999991" height="500" preserveAspectRatio="xMidYMid meet" version="1.0"><defs><g/><clipPath id="29b7cc6714"><path d="M 113 115.335938 L 262.5 115.335938 L 262.5 264.585938 L 113 264.585938 Z M 113 115.335938 " clip-rule="nonzero"/></clipPath></defs><g clip-path="url(#29b7cc6714)"><path fill="#00a551" d="M 187.816406 264.78125 C 187.132812 264.78125 186.453125 264.773438 185.769531 264.753906 C 184.152344 264.710938 182.539062 264.617188 180.925781 264.46875 C 179.316406 264.320312 177.710938 264.117188 176.113281 263.867188 C 174.515625 263.613281 172.925781 263.308594 171.347656 262.949219 C 169.769531 262.59375 168.207031 262.1875 166.652344 261.726562 C 165.101562 261.269531 163.566406 260.761719 162.050781 260.203125 C 160.53125 259.644531 159.03125 259.035156 157.554688 258.378906 C 156.074219 257.722656 154.617188 257.019531 153.1875 256.265625 C 151.753906 255.515625 150.347656 254.71875 148.964844 253.875 C 147.585938 253.03125 146.234375 252.144531 144.910156 251.214844 C 143.585938 250.28125 142.296875 249.308594 141.035156 248.292969 C 139.777344 247.277344 138.550781 246.222656 137.359375 245.128906 C 136.167969 244.035156 135.015625 242.902344 133.898438 241.730469 C 132.78125 240.558594 131.703125 239.355469 130.664062 238.113281 C 129.625 236.871094 128.628906 235.601562 127.675781 234.292969 C 126.71875 232.988281 125.808594 231.652344 124.9375 230.289062 C 124.070312 228.921875 123.246094 227.53125 122.46875 226.113281 C 121.691406 224.695312 120.960938 223.25 120.277344 221.785156 C 119.59375 220.316406 118.957031 218.832031 118.371094 217.324219 C 117.785156 215.816406 117.25 214.289062 116.761719 212.746094 C 116.273438 211.203125 115.835938 209.648438 115.453125 208.078125 C 115.066406 206.503906 114.730469 204.921875 114.449219 203.328125 C 114.167969 201.738281 113.9375 200.136719 113.757812 198.527344 C 113.578125 196.921875 113.453125 195.308594 113.378906 193.691406 C 113.308594 192.074219 113.289062 190.457031 113.320312 188.839844 C 113.351562 187.222656 113.4375 185.609375 113.574219 183.996094 C 113.710938 182.382812 113.902344 180.777344 114.144531 179.179688 C 114.386719 177.578125 114.679688 175.988281 115.023438 174.410156 C 115.371094 172.828125 115.769531 171.261719 116.214844 169.707031 C 116.664062 168.152344 117.164062 166.613281 117.710938 165.089844 C 118.257812 163.570312 118.855469 162.066406 119.503906 160.582031 C 120.148438 159.097656 120.84375 157.640625 121.582031 156.199219 C 122.324219 154.761719 123.113281 153.351562 123.945312 151.964844 C 124.78125 150.578125 125.65625 149.21875 126.578125 147.890625 C 127.5 146.558594 128.464844 145.261719 129.472656 143.996094 C 130.480469 142.730469 131.527344 141.496094 132.613281 140.296875 C 133.699219 139.101562 134.824219 137.9375 135.988281 136.8125 C 137.152344 135.6875 138.347656 134.601562 139.582031 133.554688 C 140.816406 132.507812 142.082031 131.503906 143.382812 130.539062 C 144.679688 129.574219 146.007812 128.652344 147.367188 127.773438 C 148.726562 126.898438 150.113281 126.066406 151.527344 125.277344 C 152.941406 124.488281 154.378906 123.75 155.839844 123.054688 C 157.300781 122.363281 158.785156 121.71875 160.289062 121.121094 C 161.792969 120.523438 163.3125 119.976562 164.851562 119.476562 C 166.390625 118.980469 167.945312 118.53125 169.515625 118.136719 C 171.082031 117.738281 172.664062 117.394531 174.253906 117.101562 C 175.84375 116.808594 177.445312 116.566406 179.050781 116.375 C 180.65625 116.1875 182.269531 116.050781 183.882812 115.964844 C 185.5 115.882812 187.117188 115.851562 188.734375 115.871094 C 190.351562 115.894531 191.96875 115.964844 193.582031 116.09375 C 195.191406 116.21875 196.800781 116.398438 198.402344 116.628906 C 200.003906 116.859375 201.59375 117.144531 203.179688 117.476562 C 204.761719 117.8125 206.332031 118.199219 207.890625 118.636719 C 209.445312 119.074219 210.988281 119.5625 212.515625 120.097656 C 214.039062 120.636719 215.546875 121.222656 217.035156 121.859375 C 218.523438 122.496094 219.988281 123.179688 221.429688 123.910156 C 222.875 124.644531 224.292969 125.421875 225.683594 126.246094 C 227.074219 127.070312 228.441406 127.9375 229.777344 128.851562 C 231.113281 129.761719 232.414062 130.71875 233.691406 131.714844 C 234.964844 132.714844 236.203125 133.753906 237.410156 134.832031 C 238.613281 135.910156 239.785156 137.027344 240.917969 138.183594 C 242.050781 139.335938 243.144531 140.527344 244.199219 141.753906 C 245.253906 142.980469 246.269531 144.238281 247.242188 145.53125 C 248.214844 146.824219 249.144531 148.148438 250.03125 149.5 C 250.917969 150.851562 251.761719 152.234375 252.558594 153.640625 C 253.355469 155.050781 254.105469 156.480469 254.808594 157.9375 C 255.511719 159.394531 256.167969 160.875 256.777344 162.375 C 257.382812 163.871094 257.941406 165.390625 258.449219 166.925781 C 258.957031 168.460938 259.417969 170.011719 259.824219 171.578125 C 260.230469 173.144531 260.585938 174.722656 260.890625 176.3125 C 261.195312 177.898438 261.449219 179.496094 261.648438 181.101562 C 261.847656 182.707031 261.996094 184.320312 262.09375 185.933594 C 262.1875 187.550781 262.230469 189.164062 262.21875 190.785156 C 262.210938 192.402344 262.148438 194.015625 262.03125 195.628906 C 261.917969 197.246094 261.75 198.851562 261.527344 200.457031 C 261.308594 202.058594 261.035156 203.652344 260.714844 205.238281 C 260.390625 206.824219 260.011719 208.394531 259.585938 209.957031 C 259.160156 211.515625 258.683594 213.0625 258.15625 214.589844 C 257.628906 216.121094 257.050781 217.632812 256.425781 219.125 C 255.800781 220.617188 255.125 222.085938 254.40625 223.535156 C 253.683594 224.980469 252.914062 226.40625 252.101562 227.804688 C 251.285156 229.199219 250.429688 230.570312 249.523438 231.914062 C 248.621094 233.253906 247.675781 234.566406 246.683594 235.847656 C 245.695312 237.125 244.664062 238.375 243.59375 239.585938 C 242.523438 240.800781 241.417969 241.976562 240.269531 243.117188 C 239.121094 244.257812 237.9375 245.359375 236.71875 246.425781 C 235.5 247.488281 234.25 248.511719 232.964844 249.492188 C 231.675781 250.476562 230.359375 251.414062 229.015625 252.3125 C 227.667969 253.207031 226.292969 254.058594 224.890625 254.867188 C 223.488281 255.671875 222.058594 256.433594 220.609375 257.148438 C 219.15625 257.859375 217.683594 258.527344 216.1875 259.144531 C 214.691406 259.761719 213.179688 260.328125 211.644531 260.847656 C 210.113281 261.367188 208.566406 261.835938 207.003906 262.253906 C 205.441406 262.671875 203.863281 263.039062 202.277344 263.355469 C 200.691406 263.667969 199.09375 263.933594 197.492188 264.144531 C 195.886719 264.355469 194.277344 264.515625 192.664062 264.621094 C 191.050781 264.726562 189.433594 264.78125 187.816406 264.78125 Z M 187.710938 120.023438 C 169.617188 120.023438 152.492188 126.84375 139.304688 139.34375 C 135.9375 142.519531 132.914062 145.996094 130.234375 149.769531 C 127.558594 153.542969 125.273438 157.542969 123.390625 161.773438 C 121.503906 166 120.054688 170.371094 119.035156 174.886719 C 118.019531 179.402344 117.453125 183.972656 117.339844 188.597656 C 116.300781 227.429688 147.042969 259.886719 185.871094 260.925781 C 187.023438 260.957031 188.175781 260.960938 189.332031 260.933594 C 190.484375 260.90625 191.632812 260.851562 192.785156 260.769531 C 193.933594 260.6875 195.082031 260.578125 196.226562 260.4375 C 197.371094 260.300781 198.511719 260.132812 199.648438 259.9375 C 200.785156 259.742188 201.914062 259.523438 203.042969 259.269531 C 204.167969 259.019531 205.285156 258.742188 206.398438 258.4375 C 207.507812 258.132812 208.613281 257.800781 209.707031 257.441406 C 210.804688 257.082031 211.890625 256.695312 212.96875 256.28125 C 214.042969 255.871094 215.109375 255.429688 216.164062 254.964844 C 217.21875 254.5 218.261719 254.011719 219.292969 253.496094 C 220.324219 252.976562 221.34375 252.4375 222.347656 251.871094 C 223.351562 251.304688 224.339844 250.714844 225.316406 250.097656 C 226.292969 249.484375 227.253906 248.847656 228.195312 248.183594 C 229.140625 247.523438 230.066406 246.835938 230.976562 246.128906 C 231.886719 245.421875 232.78125 244.691406 233.65625 243.941406 C 234.53125 243.191406 235.386719 242.417969 236.222656 241.625 C 237.058594 240.832031 237.875 240.019531 238.671875 239.183594 C 239.46875 238.351562 240.246094 237.5 241 236.628906 C 241.757812 235.757812 242.488281 234.867188 243.199219 233.960938 C 243.910156 233.050781 244.601562 232.128906 245.265625 231.1875 C 245.933594 230.246094 246.574219 229.289062 247.195312 228.316406 C 247.8125 227.34375 248.40625 226.355469 248.976562 225.351562 C 249.546875 224.351562 250.09375 223.335938 250.613281 222.304688 C 251.136719 221.277344 251.628906 220.238281 252.101562 219.183594 C 252.570312 218.128906 253.011719 217.066406 253.429688 215.992188 C 253.847656 214.917969 254.238281 213.832031 254.601562 212.738281 C 254.964844 211.644531 255.304688 210.542969 255.613281 209.429688 C 255.921875 208.320312 256.207031 207.203125 256.460938 206.078125 C 256.714844 204.953125 256.941406 203.824219 257.140625 202.6875 C 257.34375 201.554688 257.511719 200.414062 257.65625 199.269531 C 257.800781 198.125 257.917969 196.976562 258.003906 195.828125 C 258.089844 194.679688 258.148438 193.527344 258.179688 192.375 C 259.222656 153.542969 228.480469 121.085938 189.648438 120.046875 C 189.003906 120.035156 188.355469 120.023438 187.710938 120.023438 Z M 187.710938 120.023438 " fill-opacity="1" fill-rule="nonzero"/></g><path fill="#00a551" d="M 228.007812 184.914062 C 225.578125 181.554688 221.324219 179.585938 217.589844 179.121094 C 213.855469 178.660156 211.164062 179.121094 207.976562 180.078125 C 203.898438 181.007812 200.859375 182.453125 196.601562 184.074219 C 198.804688 181.671875 201.496094 178.835938 203.375 175.503906 C 206.007812 170.84375 207.542969 167.628906 207.773438 162.707031 C 208.007812 157.875 205.34375 152.253906 201.234375 149.417969 C 197.992188 147.21875 193.449219 147.042969 189.859375 149.332031 C 188.679688 150.078125 187.597656 150.945312 186.617188 151.9375 C 183.519531 149.765625 180.453125 148.550781 176.632812 149.1875 C 173.160156 149.507812 170.671875 152.574219 169.171875 155.296875 C 164.199219 165.34375 172.675781 175.417969 178.953125 182.625 C 167.753906 179.328125 165.003906 179.238281 162.109375 179.007812 C 159.214844 178.777344 154.613281 179.09375 151.285156 180.976562 C 147.957031 182.859375 145.03125 185.984375 144.78125 191.601562 C 144.578125 195.710938 146.835938 199.679688 151.003906 202.054688 C 148.6875 207.554688 150.25 213.171875 156.039062 215.664062 C 162.667969 218.53125 168.398438 216.675781 172.914062 213.367188 C 177.429688 210.058594 181.308594 205.867188 184.695312 201.378906 C 183.652344 225.757812 198.933594 233.285156 198.933594 233.285156 L 200.640625 227.234375 C 197.746094 225.179688 190.046875 218.113281 190.742188 201.640625 L 192.082031 202.980469 C 195.964844 207.011719 200.085938 210.785156 204.441406 214.300781 C 209.222656 218.179688 218.304688 219.542969 223.601562 213.171875 C 226.003906 210.277344 226.757812 204.457031 225.28125 202.027344 L 225.339844 201.453125 C 227.625 199.976562 229.566406 198.238281 230.375 195.546875 C 231.566406 191.890625 229.917969 187.777344 228.007812 184.914062 Z M 228.007812 184.914062 " fill-opacity="1" fill-rule="nonzero"/><g fill="#00a551" fill-opacity="1"><g transform="translate(92.338733, 162.725914)"><g><path d="M 0.890625 -2.390625 L -10.609375 -6.65625 L -7.4375 -15.203125 L -5.734375 -14.578125 L -8.25 -7.796875 L -4.953125 -6.578125 L -2.703125 -12.625 L -1 -11.984375 L -3.25 -5.9375 L 1.546875 -4.15625 Z M 0.890625 -2.390625 "/></g></g></g><g fill="#00a551" fill-opacity="1"><g transform="translate(99.040555, 145.887783)"><g><path d="M -9.203125 -8.5 L -4.53125 -16.296875 L -2.984375 -15.359375 L -6.6875 -9.171875 L -3.890625 -7.5 L -0.671875 -12.859375 L 0.890625 -11.921875 L -2.328125 -6.5625 L 0.71875 -4.734375 L 4.421875 -10.921875 L 5.984375 -9.984375 L 1.3125 -2.1875 Z M -9.203125 -8.5 "/></g></g></g><g fill="#00a551" fill-opacity="1"><g transform="translate(108.932386, 130.28386)"><g><path d="M 6.28125 -9.859375 L 7.65625 -8.640625 L 1.6875 -1.90625 L -7.484375 -10.046875 L -6.234375 -11.453125 L 1.5625 -4.53125 Z M 6.28125 -9.859375 "/></g></g></g><g fill="#00a551" fill-opacity="1"><g transform="translate(121.326394, 117.035896)"><g><path d="M 7.5625 -5.96875 L 1.90625 -1.5 L 0.78125 -2.9375 L 2.859375 -4.578125 L -2.484375 -11.34375 L -4.5625 -9.703125 L -5.6875 -11.125 L -0.03125 -15.59375 L 1.09375 -14.171875 L -0.984375 -12.53125 L 4.359375 -5.765625 L 6.4375 -7.40625 Z M 7.5625 -5.96875 "/></g></g></g><g fill="#00a551" fill-opacity="1"><g transform="translate(134.701858, 106.894891)"><g><path d="M 1.984375 -14.9375 C 2.597656 -15.269531 3.238281 -15.421875 3.90625 -15.390625 C 4.570312 -15.367188 5.1875 -15.191406 5.75 -14.859375 C 6.320312 -14.523438 6.773438 -14.039062 7.109375 -13.40625 C 7.453125 -12.769531 7.601562 -12.101562 7.5625 -11.40625 C 7.519531 -10.707031 7.304688 -10.0625 6.921875 -9.46875 C 6.546875 -8.875 6.039062 -8.410156 5.40625 -8.078125 L 1.765625 -6.140625 L 3.921875 -2.078125 L 2.25 -1.1875 L -3.5 -12.03125 Z M 4.46875 -9.625 C 4.8125 -9.8125 5.078125 -10.066406 5.265625 -10.390625 C 5.460938 -10.710938 5.570312 -11.054688 5.59375 -11.421875 C 5.625 -11.796875 5.550781 -12.148438 5.375 -12.484375 C 5.207031 -12.804688 4.96875 -13.046875 4.65625 -13.203125 C 4.351562 -13.367188 4.015625 -13.453125 3.640625 -13.453125 C 3.273438 -13.460938 2.921875 -13.375 2.578125 -13.1875 L -0.96875 -11.3125 L 0.921875 -7.75 Z M 4.46875 -9.625 "/></g></g></g><g fill="#00a551" fill-opacity="1"><g transform="translate(151.622739, 98.450733)"><g><path d="M -1.171875 -12.46875 L 7.515625 -15.140625 L 8.046875 -13.40625 L 1.15625 -11.28125 L 2.109375 -8.1875 L 8.078125 -10.03125 L 8.625 -8.28125 L 2.65625 -6.4375 L 3.703125 -3.046875 L 10.59375 -5.171875 L 11.125 -3.421875 L 2.4375 -0.75 Z M -1.171875 -12.46875 "/></g></g></g><g fill="#00a551" fill-opacity="1"><g transform="translate(169.586349, 93.589991)"><g/></g></g><g fill="#00a551" fill-opacity="1"><g transform="translate(181.257212, 92.012829)"><g><path d="M 2.546875 0.015625 L 2.640625 -12.25 L 11.765625 -12.171875 L 11.75 -10.359375 L 4.515625 -10.421875 L 4.484375 -6.90625 L 10.9375 -6.859375 L 10.921875 -5.046875 L 4.46875 -5.09375 L 4.4375 0.03125 Z M 2.546875 0.015625 "/></g></g></g><g fill="#00a551" fill-opacity="1"><g transform="translate(199.323389, 92.441851)"><g><path d="M 16.15625 -2.875 C 15.96875 -1.988281 15.628906 -1.207031 15.140625 -0.53125 C 14.660156 0.132812 14.0625 0.6875 13.34375 1.125 C 12.632812 1.5625 11.84375 1.851562 10.96875 2 C 10.09375 2.144531 9.175781 2.113281 8.21875 1.90625 C 7.238281 1.695312 6.375 1.347656 5.625 0.859375 C 4.875 0.378906 4.257812 -0.195312 3.78125 -0.875 C 3.3125 -1.5625 2.992188 -2.3125 2.828125 -3.125 C 2.660156 -3.945312 2.671875 -4.800781 2.859375 -5.6875 C 3.035156 -6.550781 3.363281 -7.320312 3.84375 -8 C 4.332031 -8.675781 4.929688 -9.234375 5.640625 -9.671875 C 6.347656 -10.109375 7.140625 -10.398438 8.015625 -10.546875 C 8.898438 -10.691406 9.832031 -10.660156 10.8125 -10.453125 C 11.769531 -10.242188 12.617188 -9.894531 13.359375 -9.40625 C 14.109375 -8.925781 14.722656 -8.34375 15.203125 -7.65625 C 15.679688 -6.976562 16.003906 -6.226562 16.171875 -5.40625 C 16.335938 -4.582031 16.332031 -3.738281 16.15625 -2.875 Z M 14.265625 -3.28125 C 14.441406 -4.113281 14.394531 -4.898438 14.125 -5.640625 C 13.851562 -6.378906 13.398438 -7.015625 12.765625 -7.546875 C 12.140625 -8.078125 11.363281 -8.441406 10.4375 -8.640625 C 9.488281 -8.835938 8.613281 -8.820312 7.8125 -8.59375 C 7.007812 -8.363281 6.34375 -7.960938 5.8125 -7.390625 C 5.28125 -6.816406 4.925781 -6.113281 4.75 -5.28125 C 4.570312 -4.4375 4.609375 -3.644531 4.859375 -2.90625 C 5.117188 -2.164062 5.566406 -1.53125 6.203125 -1 C 6.847656 -0.46875 7.644531 -0.101562 8.59375 0.09375 C 9.519531 0.289062 10.378906 0.273438 11.171875 0.046875 C 11.960938 -0.179688 12.628906 -0.582031 13.171875 -1.15625 C 13.722656 -1.738281 14.085938 -2.445312 14.265625 -3.28125 Z M 14.265625 -3.28125 "/></g></g></g><g fill="#00a551" fill-opacity="1"><g transform="translate(220.141453, 97.311472)"><g><path d="M 16.625 -5.9375 L 18.34375 -5.15625 L 13.28125 6.015625 L 11.609375 5.25 L 7.6875 -6.984375 C 7.4375 -6.285156 7.191406 -5.582031 6.953125 -4.875 C 6.722656 -4.175781 6.457031 -3.492188 6.15625 -2.828125 L 4.046875 1.828125 L 2.328125 1.046875 L 7.390625 -10.125 L 9.015625 -9.375 L 12.84375 3.0625 C 13.03125 2.519531 13.238281 1.9375 13.46875 1.3125 C 13.695312 0.6875 13.941406 0.0703125 14.203125 -0.53125 C 14.460938 -1.144531 14.710938 -1.722656 14.953125 -2.265625 Z M 16.625 -5.9375 "/></g></g></g><g fill="#00a551" fill-opacity="1"><g transform="translate(239.65123, 106.827896)"><g><path d="M 4.53125 -1.34375 C 4.601562 -0.414062 4.789062 0.394531 5.09375 1.09375 C 5.40625 1.800781 5.953125 2.4375 6.734375 3 C 7.148438 3.3125 7.582031 3.550781 8.03125 3.71875 C 8.488281 3.882812 8.925781 3.945312 9.34375 3.90625 C 9.769531 3.875 10.097656 3.691406 10.328125 3.359375 C 10.679688 2.878906 10.679688 2.351562 10.328125 1.78125 C 9.972656 1.207031 9.390625 0.519531 8.578125 -0.28125 C 7.585938 -1.25 6.925781 -2.203125 6.59375 -3.140625 C 6.269531 -4.085938 6.425781 -5 7.0625 -5.875 C 7.5 -6.46875 8.046875 -6.847656 8.703125 -7.015625 C 9.367188 -7.179688 10.09375 -7.160156 10.875 -6.953125 C 11.65625 -6.753906 12.40625 -6.390625 13.125 -5.859375 C 14.039062 -5.203125 14.71875 -4.476562 15.15625 -3.6875 C 15.59375 -2.894531 15.800781 -2.085938 15.78125 -1.265625 L 13.921875 -0.9375 C 13.929688 -1.59375 13.785156 -2.234375 13.484375 -2.859375 C 13.191406 -3.484375 12.726562 -4.03125 12.09375 -4.5 C 11.425781 -4.976562 10.78125 -5.257812 10.15625 -5.34375 C 9.539062 -5.425781 9.078125 -5.25 8.765625 -4.8125 C 8.390625 -4.300781 8.359375 -3.765625 8.671875 -3.203125 C 8.992188 -2.648438 9.5 -2.023438 10.1875 -1.328125 C 10.632812 -0.890625 11.050781 -0.441406 11.4375 0.015625 C 11.820312 0.484375 12.125 0.953125 12.34375 1.421875 C 12.5625 1.890625 12.664062 2.359375 12.65625 2.828125 C 12.644531 3.296875 12.472656 3.765625 12.140625 4.234375 C 11.679688 4.859375 11.109375 5.285156 10.421875 5.515625 C 9.734375 5.753906 8.984375 5.769531 8.171875 5.5625 C 7.359375 5.363281 6.523438 4.953125 5.671875 4.328125 C 4.753906 3.660156 4.035156 2.90625 3.515625 2.0625 C 2.992188 1.226562 2.695312 0.269531 2.625 -0.8125 Z M 4.53125 -1.34375 "/></g></g></g><g fill="#00a551" fill-opacity="1"><g transform="translate(254.470953, 118.158622)"><g><path d="M 10.6875 -6.546875 L 16.90625 0.078125 L 15.59375 1.328125 L 10.65625 -3.921875 L 8.28125 -1.703125 L 12.5625 2.84375 L 11.234375 4.09375 L 6.953125 -0.453125 L 4.359375 1.984375 L 9.296875 7.234375 L 7.96875 8.484375 L 1.75 1.859375 Z M 10.6875 -6.546875 "/></g></g></g><g fill="#00a551" fill-opacity="1"><g transform="translate(266.810537, 131.872253)"><g><path d="M 8.453125 10.265625 C 8.078125 10.171875 7.628906 9.984375 7.109375 9.703125 C 6.585938 9.421875 6.070312 9.054688 5.5625 8.609375 C 5.0625 8.171875 4.613281 7.632812 4.21875 7 C 3.71875 6.21875 3.382812 5.410156 3.21875 4.578125 C 3.050781 3.753906 3.039062 2.945312 3.1875 2.15625 C 3.332031 1.363281 3.644531 0.617188 4.125 -0.078125 C 4.601562 -0.773438 5.25 -1.378906 6.0625 -1.890625 C 6.8125 -2.367188 7.601562 -2.660156 8.4375 -2.765625 C 9.28125 -2.867188 10.097656 -2.8125 10.890625 -2.59375 C 11.691406 -2.382812 12.4375 -2.023438 13.125 -1.515625 C 13.8125 -1.003906 14.390625 -0.375 14.859375 0.375 C 15.253906 1 15.539062 1.644531 15.71875 2.3125 C 15.894531 2.976562 15.988281 3.613281 16 4.21875 C 16.007812 4.832031 15.957031 5.363281 15.84375 5.8125 L 13.9375 5.59375 C 14.0625 4.863281 14.082031 4.132812 14 3.40625 C 13.914062 2.6875 13.660156 1.984375 13.234375 1.296875 C 12.921875 0.804688 12.53125 0.378906 12.0625 0.015625 C 11.601562 -0.335938 11.097656 -0.597656 10.546875 -0.765625 C 10.003906 -0.929688 9.4375 -0.976562 8.84375 -0.90625 C 8.25 -0.832031 7.671875 -0.613281 7.109375 -0.25 C 6.265625 0.269531 5.6875 0.894531 5.375 1.625 C 5.0625 2.363281 4.957031 3.128906 5.0625 3.921875 C 5.175781 4.722656 5.457031 5.472656 5.90625 6.171875 C 6.226562 6.691406 6.582031 7.109375 6.96875 7.421875 C 7.363281 7.742188 7.757812 8 8.15625 8.1875 C 8.5625 8.375 8.9375 8.523438 9.28125 8.640625 Z M 8.453125 10.265625 "/></g></g></g><g fill="#00a551" fill-opacity="1"><g transform="translate(276.818134, 148.589301)"><g><path d="M 4.265625 11.203125 L 6.546875 8.921875 L 4.3125 3.046875 L 1.09375 2.859375 L 0.390625 1.03125 L 13.796875 1.765625 L 14.53125 3.703125 L 5 13.125 Z M 9.75 3.328125 L 6.296875 3.140625 L 7.96875 7.53125 L 10.484375 5.0625 C 11.035156 4.488281 11.644531 3.921875 12.3125 3.359375 C 11.851562 3.367188 11.410156 3.367188 10.984375 3.359375 C 10.554688 3.347656 10.144531 3.335938 9.75 3.328125 Z M 9.75 3.328125 "/></g></g></g><g fill="#00a551" fill-opacity="1"><g transform="translate(82.875267, 187.389583)"><g><path d="M 0 2.109375 L 11.203125 2.078125 L 11.234375 10.109375 L 9.5625 10.109375 L 9.546875 3.8125 L 6.390625 3.828125 L 6.40625 9.40625 L 4.734375 9.40625 L 4.71875 3.828125 L 0.015625 3.84375 Z M 0 2.109375 "/></g></g></g><g fill="#00a551" fill-opacity="1"><g transform="translate(83.377124, 204.844227)"><g><path d="M 9.53125 9.625 C 8.8125 9.75 8.117188 9.648438 7.453125 9.328125 C 6.796875 9.003906 6.285156 8.523438 5.921875 7.890625 L 2.046875 11.515625 L 1.6875 9.40625 L 5.328125 6.046875 L 4.78125 3.046875 L 0.671875 3.78125 L 0.375 2.078125 L 11.40625 0.09375 L 12.375 5.46875 C 12.476562 6.070312 12.429688 6.664062 12.234375 7.25 C 12.035156 7.84375 11.703125 8.351562 11.234375 8.78125 C 10.773438 9.21875 10.207031 9.5 9.53125 9.625 Z M 10.65625 5.421875 L 10.046875 2.09375 L 6.421875 2.75 L 7.078125 6.328125 C 7.140625 6.703125 7.28125 7.007812 7.5 7.25 C 7.726562 7.5 7.992188 7.675781 8.296875 7.78125 C 8.597656 7.894531 8.910156 7.921875 9.234375 7.859375 C 9.585938 7.796875 9.882812 7.640625 10.125 7.390625 C 10.363281 7.148438 10.523438 6.859375 10.609375 6.515625 C 10.703125 6.171875 10.71875 5.804688 10.65625 5.421875 Z M 10.65625 5.421875 "/></g></g></g><g fill="#00a551" fill-opacity="1"><g transform="translate(87.258427, 223.598849)"><g><path d="M 9.984375 10.375 C 9.234375 10.664062 8.476562 10.800781 7.71875 10.78125 C 6.957031 10.769531 6.238281 10.601562 5.5625 10.28125 C 4.882812 9.957031 4.28125 9.507812 3.75 8.9375 C 3.21875 8.363281 2.789062 7.671875 2.46875 6.859375 C 2.15625 6.035156 2.003906 5.226562 2.015625 4.4375 C 2.023438 3.644531 2.175781 2.90625 2.46875 2.21875 C 2.757812 1.539062 3.175781 0.9375 3.71875 0.40625 C 4.269531 -0.113281 4.921875 -0.519531 5.671875 -0.8125 C 6.429688 -1.101562 7.191406 -1.238281 7.953125 -1.21875 C 8.710938 -1.195312 9.429688 -1.03125 10.109375 -0.71875 C 10.796875 -0.40625 11.40625 0.0351562 11.9375 0.609375 C 12.46875 1.191406 12.890625 1.894531 13.203125 2.71875 C 13.523438 3.53125 13.679688 4.328125 13.671875 5.109375 C 13.660156 5.898438 13.503906 6.640625 13.203125 7.328125 C 12.910156 8.023438 12.488281 8.632812 11.9375 9.15625 C 11.394531 9.675781 10.742188 10.082031 9.984375 10.375 Z M 9.359375 8.734375 C 10.085938 8.453125 10.671875 8.03125 11.109375 7.46875 C 11.554688 6.914062 11.832031 6.273438 11.9375 5.546875 C 12.050781 4.828125 11.957031 4.082031 11.65625 3.3125 C 11.351562 2.519531 10.914062 1.890625 10.34375 1.421875 C 9.78125 0.960938 9.148438 0.675781 8.453125 0.5625 C 7.753906 0.457031 7.039062 0.546875 6.3125 0.828125 C 5.59375 1.109375 5.007812 1.519531 4.5625 2.0625 C 4.113281 2.613281 3.835938 3.25 3.734375 3.96875 C 3.628906 4.695312 3.726562 5.457031 4.03125 6.25 C 4.332031 7.019531 4.765625 7.632812 5.328125 8.09375 C 5.890625 8.5625 6.523438 8.851562 7.234375 8.96875 C 7.941406 9.09375 8.648438 9.015625 9.359375 8.734375 Z M 9.359375 8.734375 "/></g></g></g><g fill="#00a551" fill-opacity="1"><g transform="translate(95.210309, 242.619811)"><g><path d="M 15.328125 3.25 L 16.25 4.71875 L 6.796875 10.71875 L 5.921875 9.328125 L 9.21875 -1.640625 C 8.6875 -1.234375 8.15625 -0.820312 7.625 -0.40625 C 7.101562 0.0078125 6.5625 0.394531 6 0.75 L 2.0625 3.25 L 1.125 1.78125 L 10.578125 -4.21875 L 11.453125 -2.84375 L 8 8.21875 C 8.394531 7.875 8.832031 7.523438 9.3125 7.171875 C 9.789062 6.828125 10.28125 6.488281 10.78125 6.15625 C 11.289062 5.820312 11.769531 5.507812 12.21875 5.21875 Z M 15.328125 3.25 "/></g></g></g><g fill="#00a551" fill-opacity="1"><g transform="translate(106.91289, 259.740221)"><g><path d="M 3.09375 3.359375 L 10.09375 -3.109375 L 7.65625 -5.75 L 8.890625 -6.875 L 15 -0.265625 L 13.765625 0.859375 L 11.265625 -1.859375 L 4.265625 4.609375 Z M 3.09375 3.359375 "/></g></g></g><g fill="#00a551" fill-opacity="1"><g transform="translate(118.649156, 271.661144)"><g><path d="M 3.40625 -2.125 L 4.40625 -3.359375 L 8.34375 -0.171875 L 7.34375 1.0625 Z M 3.40625 -2.125 "/></g></g></g><g fill="#00a551" fill-opacity="1"><g transform="translate(129.312874, 279.941779)"><g><path d="M 7.5 -8.59375 L 14.359375 -4.546875 L 13.515625 -3.109375 L 8.15625 -6.265625 L 6.65625 -3.71875 L 11.265625 -1.015625 L 10.40625 0.421875 L 5.796875 -2.28125 L 4.15625 0.53125 L 9.515625 3.6875 L 8.671875 5.109375 L 1.8125 1.0625 Z M 7.5 -8.59375 "/></g></g></g><g fill="#00a551" fill-opacity="1"><g transform="translate(144.861455, 288.61431)"><g><path d="M 14.109375 -6.796875 L 15.734375 -6.203125 L 11.921875 4.328125 L 10.390625 3.765625 L 6.28125 -6.9375 C 6.113281 -6.289062 5.945312 -5.640625 5.78125 -4.984375 C 5.613281 -4.328125 5.421875 -3.6875 5.203125 -3.0625 L 3.609375 1.3125 L 1.984375 0.71875 L 5.796875 -9.8125 L 7.328125 -9.265625 L 11.34375 1.625 C 11.445312 1.101562 11.582031 0.5625 11.75 0 C 11.914062 -0.570312 12.097656 -1.144531 12.296875 -1.71875 C 12.492188 -2.289062 12.679688 -2.828125 12.859375 -3.328125 Z M 14.109375 -6.796875 "/></g></g></g><g fill="#00a551" fill-opacity="1"><g transform="translate(164.640702, 295.116465)"><g><path d="M 8.640625 -10.015625 C 9.554688 -9.867188 10.335938 -9.59375 10.984375 -9.1875 C 11.628906 -8.789062 12.148438 -8.300781 12.546875 -7.71875 C 12.941406 -7.132812 13.207031 -6.488281 13.34375 -5.78125 C 13.488281 -5.082031 13.503906 -4.359375 13.390625 -3.609375 C 13.234375 -2.597656 12.878906 -1.703125 12.328125 -0.921875 C 11.773438 -0.148438 11.039062 0.414062 10.125 0.78125 C 9.207031 1.15625 8.144531 1.25 6.9375 1.0625 L 2.078125 0.328125 L 3.78125 -10.75 Z M 7.09375 -0.59375 C 8.007812 -0.445312 8.78125 -0.503906 9.40625 -0.765625 C 10.039062 -1.035156 10.535156 -1.441406 10.890625 -1.984375 C 11.253906 -2.535156 11.492188 -3.164062 11.609375 -3.875 C 11.710938 -4.570312 11.671875 -5.238281 11.484375 -5.875 C 11.304688 -6.507812 10.957031 -7.046875 10.4375 -7.484375 C 9.914062 -7.929688 9.203125 -8.226562 8.296875 -8.375 L 5.25 -8.84375 L 4.046875 -1.0625 Z M 7.09375 -0.59375 "/></g></g></g><g fill="#00a551" fill-opacity="1"><g transform="translate(184.26391, 297.389163)"><g/></g></g><g fill="#00a551" fill-opacity="1"><g transform="translate(195.892458, 297.290214)"><g><path d="M 5.296875 -12.109375 C 6.210938 -12.242188 7.039062 -12.21875 7.78125 -12.03125 C 8.519531 -11.84375 9.164062 -11.523438 9.71875 -11.078125 C 10.269531 -10.640625 10.710938 -10.101562 11.046875 -9.46875 C 11.378906 -8.832031 11.597656 -8.140625 11.703125 -7.390625 C 11.859375 -6.378906 11.785156 -5.421875 11.484375 -4.515625 C 11.191406 -3.617188 10.664062 -2.859375 9.90625 -2.234375 C 9.144531 -1.609375 8.15625 -1.207031 6.9375 -1.03125 L 2.09375 -0.3125 L 0.453125 -11.390625 Z M 6.59375 -2.65625 C 7.507812 -2.789062 8.226562 -3.078125 8.75 -3.515625 C 9.28125 -3.953125 9.632812 -4.484375 9.8125 -5.109375 C 10 -5.742188 10.035156 -6.414062 9.921875 -7.125 C 9.828125 -7.820312 9.601562 -8.445312 9.25 -9 C 8.894531 -9.550781 8.398438 -9.960938 7.765625 -10.234375 C 7.128906 -10.503906 6.359375 -10.570312 5.453125 -10.4375 L 2.40625 -9.984375 L 3.546875 -2.203125 Z M 6.59375 -2.65625 "/></g></g></g><g fill="#00a551" fill-opacity="1"><g transform="translate(215.484768, 293.743918)"><g><path d="M -1.609375 -11.28125 L 5.921875 -13.84375 L 6.46875 -12.265625 L 0.578125 -10.265625 L 1.53125 -7.46875 L 6.59375 -9.1875 L 7.125 -7.59375 L 2.0625 -5.875 L 3.109375 -2.796875 L 9 -4.796875 L 9.53125 -3.234375 L 2 -0.671875 Z M -1.609375 -11.28125 "/></g></g></g><g fill="#00a551" fill-opacity="1"><g transform="translate(232.136671, 287.591547)"><g><path d="M 5.25 -15.65625 L 6.484375 -3.5625 L 4.875 -2.671875 L -4.671875 -10.203125 L -2.953125 -11.15625 L 2.75 -6.59375 C 3.082031 -6.332031 3.425781 -6.054688 3.78125 -5.765625 C 4.144531 -5.484375 4.484375 -5.203125 4.796875 -4.921875 C 4.734375 -5.347656 4.671875 -5.78125 4.609375 -6.21875 C 4.554688 -6.664062 4.503906 -7.097656 4.453125 -7.515625 L 3.46875 -14.6875 Z M 5.25 -15.65625 "/></g></g></g><g fill="#00a551" fill-opacity="1"><g transform="translate(248.415367, 277.99438)"><g><path d="M -5.390625 -10.0625 L 0.8125 -15.046875 L 1.875 -13.734375 L -2.96875 -9.828125 L -1.125 -7.53125 L 3.03125 -10.890625 L 4.078125 -9.59375 L -0.078125 -6.234375 L 1.96875 -3.703125 L 6.8125 -7.609375 L 7.84375 -6.3125 L 1.640625 -1.328125 Z M -5.390625 -10.0625 "/></g></g></g><g fill="#00a551" fill-opacity="1"><g transform="translate(261.888633, 266.496908)"><g><path d="M 5.390625 -8.5625 L 6.625 -7.46875 L 1.40625 -1.578125 L -6.984375 -9.015625 L -5.84375 -10.3125 L 1.3125 -3.96875 Z M 5.390625 -8.5625 "/></g></g></g><g fill="#00a551" fill-opacity="1"><g transform="translate(273.181934, 253.146934)"><g><path d="M 2.09375 -14.25 C 2.78125 -13.832031 3.347656 -13.320312 3.796875 -12.71875 C 4.242188 -12.113281 4.550781 -11.441406 4.71875 -10.703125 C 4.882812 -9.972656 4.898438 -9.21875 4.765625 -8.4375 C 4.640625 -7.664062 4.351562 -6.90625 3.90625 -6.15625 C 3.457031 -5.40625 2.914062 -4.789062 2.28125 -4.3125 C 1.65625 -3.832031 0.976562 -3.5 0.25 -3.3125 C -0.476562 -3.125 -1.21875 -3.082031 -1.96875 -3.1875 C -2.71875 -3.300781 -3.4375 -3.566406 -4.125 -3.984375 C -4.820312 -4.398438 -5.394531 -4.914062 -5.84375 -5.53125 C -6.289062 -6.144531 -6.597656 -6.816406 -6.765625 -7.546875 C -6.929688 -8.273438 -6.945312 -9.03125 -6.8125 -9.8125 C -6.6875 -10.59375 -6.398438 -11.359375 -5.953125 -12.109375 C -5.503906 -12.859375 -4.960938 -13.46875 -4.328125 -13.9375 C -3.703125 -14.414062 -3.023438 -14.75 -2.296875 -14.9375 C -1.566406 -15.132812 -0.828125 -15.171875 -0.078125 -15.046875 C 0.671875 -14.929688 1.394531 -14.664062 2.09375 -14.25 Z M 1.171875 -12.75 C 0.492188 -13.15625 -0.195312 -13.363281 -0.90625 -13.375 C -1.625 -13.382812 -2.300781 -13.207031 -2.9375 -12.84375 C -3.570312 -12.476562 -4.101562 -11.945312 -4.53125 -11.25 C -4.96875 -10.53125 -5.195312 -9.800781 -5.21875 -9.0625 C -5.238281 -8.332031 -5.078125 -7.65625 -4.734375 -7.03125 C -4.390625 -6.414062 -3.878906 -5.90625 -3.203125 -5.5 C -2.546875 -5.101562 -1.863281 -4.894531 -1.15625 -4.875 C -0.445312 -4.863281 0.222656 -5.035156 0.859375 -5.390625 C 1.492188 -5.753906 2.03125 -6.296875 2.46875 -7.015625 C 2.894531 -7.710938 3.117188 -8.429688 3.140625 -9.171875 C 3.160156 -9.910156 3 -10.59375 2.65625 -11.21875 C 2.3125 -11.84375 1.816406 -12.351562 1.171875 -12.75 Z M 1.171875 -12.75 "/></g></g></g><g fill="#00a551" fill-opacity="1"><g transform="translate(283.23263, 235.231438)"><g><path d="M -7.875 -10.921875 C -7.65625 -11.503906 -7.3125 -11.984375 -6.84375 -12.359375 C -6.375 -12.742188 -5.835938 -12.988281 -5.234375 -13.09375 C -4.640625 -13.207031 -4.039062 -13.148438 -3.4375 -12.921875 C -2.8125 -12.691406 -2.304688 -12.332031 -1.921875 -11.84375 C -1.546875 -11.351562 -1.304688 -10.796875 -1.203125 -10.171875 C -1.097656 -9.554688 -1.15625 -8.945312 -1.375 -8.34375 L -2.609375 -5.078125 L 1.34375 -3.59375 L 0.734375 -1.96875 L -9.75 -5.90625 Z M -2.96875 -8.859375 C -2.851562 -9.160156 -2.828125 -9.472656 -2.890625 -9.796875 C -2.953125 -10.128906 -3.082031 -10.425781 -3.28125 -10.6875 C -3.488281 -10.945312 -3.75 -11.132812 -4.0625 -11.25 C -4.363281 -11.363281 -4.671875 -11.382812 -4.984375 -11.3125 C -5.304688 -11.25 -5.585938 -11.113281 -5.828125 -10.90625 C -6.078125 -10.695312 -6.257812 -10.441406 -6.375 -10.140625 L -7.578125 -6.9375 L -4.171875 -5.65625 Z M -2.96875 -8.859375 "/></g></g></g><g fill="#00a551" fill-opacity="1"><g transform="translate(289.092923, 218.091988)"><g><path d="M -10.609375 -4.15625 L -9.125 -11.96875 L -7.484375 -11.65625 L -8.640625 -5.546875 L -5.75 -5 L -4.765625 -10.25 L -3.125 -9.9375 L -4.109375 -4.6875 L -0.90625 -4.09375 L 0.25 -10.203125 L 1.875 -9.890625 L 0.390625 -2.078125 Z M -10.609375 -4.15625 "/></g></g></g><g fill="#00a551" fill-opacity="1"><g transform="translate(291.936172, 200.562679)"><g><path d="M -7.5625 -11.234375 C -6.832031 -11.234375 -6.171875 -11.007812 -5.578125 -10.5625 C -4.992188 -10.113281 -4.578125 -9.546875 -4.328125 -8.859375 L 0.140625 -11.703125 L 0.109375 -9.5625 L -4.09375 -6.9375 L -4.125 -3.890625 L 0.046875 -3.84375 L 0.015625 -2.109375 L -11.1875 -2.234375 L -11.125 -7.703125 C -11.113281 -8.316406 -10.957031 -8.890625 -10.65625 -9.421875 C -10.351562 -9.960938 -9.929688 -10.398438 -9.390625 -10.734375 C -8.859375 -11.078125 -8.25 -11.242188 -7.5625 -11.234375 Z M -9.453125 -7.328125 L -9.484375 -3.953125 L -5.796875 -3.90625 L -5.765625 -7.546875 C -5.753906 -7.921875 -5.832031 -8.25 -6 -8.53125 C -6.175781 -8.820312 -6.398438 -9.046875 -6.671875 -9.203125 C -6.953125 -9.359375 -7.257812 -9.4375 -7.59375 -9.4375 C -7.945312 -9.445312 -8.265625 -9.351562 -8.546875 -9.15625 C -8.835938 -8.96875 -9.054688 -8.710938 -9.203125 -8.390625 C -9.359375 -8.078125 -9.441406 -7.722656 -9.453125 -7.328125 Z M -9.453125 -7.328125 "/></g></g></g></svg>